<?xml version="1.0" standalone="no"?>
<!DOCTYPE svg PUBLIC "-//W3C//DTD SVG 20010904//EN"
 "http://www.w3.org/TR/2001/REC-SVG-20010904/DTD/svg10.dtd">
<svg version="1.0" xmlns="http://www.w3.org/2000/svg"
 width="500.000000pt" height="500.000000pt" viewBox="0 0 500.000000 500.000000"
 preserveAspectRatio="xMidYMid meet">
<metadata>
Created by potrace 1.14, written by Peter Selinger 2001-2017
</metadata>
<g transform="translate(0.000000,500.000000) scale(0.100000,-0.100000)"
fill="#000000" stroke="none">
<path d="M20 3875 l0 -55 2470 0 2470 0 0 55 0 55 -2470 0 -2470 0 0 -55z"/>
<path d="M1078 3722 c-8 -2 -25 -26 -37 -55 -13 -29 -27 -61 -32 -72 -4 -11
-81 -198 -169 -415 -247 -606 -340 -833 -350 -855 -17 -37 -422 -1030 -427
-1047 -5 -16 3 -18 74 -18 70 0 82 3 100 23 18 19 72 149 271 644 l37 93 85 0
c242 2 1123 0 1125 -2 4 -5 256 -628 272 -673 26 -73 45 -85 136 -85 71 0 79
2 74 18 -5 20 -61 155 -592 1452 -212 520 -392 956 -398 969 -11 22 -18 25
-83 25 -39 1 -77 0 -86 -2z m82 -213 c0 -10 38 -113 65 -174 7 -16 106 -262
219 -545 114 -283 211 -524 216 -535 25 -54 38 -95 32 -98 -6 -3 -1085 -1
-1088 2 -1 0 11 34 28 74 155 381 498 1238 503 1260 7 26 25 38 25 16z"/>
<path d="M2485 3720 c-1 -3 -2 -556 -1 -1230 l1 -1225 78 -3 77 -3 0 478 c0
263 0 754 0 1092 0 338 2 612 5 610 2 -3 22 -36 43 -74 21 -39 182 -317 357
-620 175 -302 326 -563 335 -580 10 -16 52 -91 95 -165 43 -74 84 -144 90
-155 63 -113 81 -138 109 -150 16 -7 35 -11 40 -10 6 2 23 6 38 9 27 6 38 24
188 291 42 75 653 1160 673 1195 11 19 47 83 80 143 32 59 62 107 66 107 3 0
5 -488 4 -1085 l-3 -1085 79 0 78 0 -1 1232 -1 1233 -80 -3 c-90 -2 -96 -6
-140 -87 -24 -44 -301 -535 -480 -850 -34 -60 -80 -141 -101 -180 -21 -38 -43
-77 -49 -86 -5 -9 -21 -36 -34 -60 -13 -24 -69 -123 -124 -219 -55 -96 -121
-216 -148 -267 l-48 -92 -24 52 c-21 46 -272 482 -755 1312 -80 138 -152 261
-159 275 -8 14 -25 43 -39 65 -13 22 -33 56 -43 76 -11 19 -26 41 -34 47 -14
12 -166 22 -172 12z"/>
<path d="M20 1105 l0 -55 2470 0 2470 0 0 55 0 55 -2470 0 -2470 0 0 -55z"/>
</g>
</svg>
